<mxfile host="app.diagrams.net" modified="2022-10-31T07:17:50.402Z" agent="5.0 (Macintosh; Intel Mac OS X 10_15_7) AppleWebKit/537.36 (KHTML, like Gecko) Chrome/105.0.0.0 Safari/537.36" etag="YM7dLxyjupZhxdVAUIXP" version="20.4.0" type="github">
  <diagram id="mSxrZph_0Gu7QOmQeFGe" name="第 1 页">
    <mxGraphModel dx="765" dy="1059" grid="1" gridSize="10" guides="1" tooltips="1" connect="1" arrows="1" fold="1" page="1" pageScale="1" pageWidth="2339" pageHeight="3300" math="0" shadow="0">
      <root>
        <mxCell id="0" />
        <mxCell id="1" parent="0" />
        <mxCell id="o57jXzXNjO05xtOuwxov-33" value="" style="rounded=0;whiteSpace=wrap;html=1;fontSize=16;fillColor=#FFFFFF;dashed=1;" vertex="1" parent="1">
          <mxGeometry x="30" y="1220" width="560" height="310" as="geometry" />
        </mxCell>
        <mxCell id="o57jXzXNjO05xtOuwxov-31" value="" style="rounded=0;whiteSpace=wrap;html=1;fontSize=16;fillColor=#FFFFFF;dashed=1;" vertex="1" parent="1">
          <mxGeometry x="30" y="450" width="560" height="750" as="geometry" />
        </mxCell>
        <mxCell id="o57jXzXNjO05xtOuwxov-3" style="edgeStyle=orthogonalEdgeStyle;rounded=0;orthogonalLoop=1;jettySize=auto;html=1;exitX=0.5;exitY=1;exitDx=0;exitDy=0;entryX=0.5;entryY=0;entryDx=0;entryDy=0;fontSize=16;" edge="1" parent="1" source="o57jXzXNjO05xtOuwxov-1" target="o57jXzXNjO05xtOuwxov-2">
          <mxGeometry relative="1" as="geometry" />
        </mxCell>
        <mxCell id="o57jXzXNjO05xtOuwxov-1" value="&lt;font style=&quot;font-size: 16px;&quot;&gt;实例化&lt;/font&gt;" style="rounded=1;whiteSpace=wrap;html=1;" vertex="1" parent="1">
          <mxGeometry x="160" y="270" width="300" height="50" as="geometry" />
        </mxCell>
        <mxCell id="o57jXzXNjO05xtOuwxov-5" style="edgeStyle=orthogonalEdgeStyle;rounded=0;orthogonalLoop=1;jettySize=auto;html=1;exitX=0.5;exitY=1;exitDx=0;exitDy=0;entryX=0.5;entryY=0;entryDx=0;entryDy=0;fontSize=16;" edge="1" parent="1" source="o57jXzXNjO05xtOuwxov-2" target="o57jXzXNjO05xtOuwxov-4">
          <mxGeometry relative="1" as="geometry" />
        </mxCell>
        <mxCell id="o57jXzXNjO05xtOuwxov-2" value="填充属性" style="rounded=1;whiteSpace=wrap;html=1;fontSize=16;" vertex="1" parent="1">
          <mxGeometry x="160" y="370" width="300" height="50" as="geometry" />
        </mxCell>
        <mxCell id="o57jXzXNjO05xtOuwxov-7" style="edgeStyle=orthogonalEdgeStyle;rounded=0;orthogonalLoop=1;jettySize=auto;html=1;exitX=0.5;exitY=1;exitDx=0;exitDy=0;entryX=0.5;entryY=0;entryDx=0;entryDy=0;fontSize=16;" edge="1" parent="1" source="o57jXzXNjO05xtOuwxov-4" target="o57jXzXNjO05xtOuwxov-6">
          <mxGeometry relative="1" as="geometry" />
        </mxCell>
        <mxCell id="o57jXzXNjO05xtOuwxov-4" value="如果Bean实现了BeanNameAware接口，则调用setBeanName方法" style="rounded=1;whiteSpace=wrap;html=1;fontSize=16;" vertex="1" parent="1">
          <mxGeometry x="160" y="470" width="300" height="60" as="geometry" />
        </mxCell>
        <mxCell id="o57jXzXNjO05xtOuwxov-9" style="edgeStyle=orthogonalEdgeStyle;rounded=0;orthogonalLoop=1;jettySize=auto;html=1;exitX=0.5;exitY=1;exitDx=0;exitDy=0;entryX=0.5;entryY=0;entryDx=0;entryDy=0;fontSize=16;" edge="1" parent="1" source="o57jXzXNjO05xtOuwxov-6" target="o57jXzXNjO05xtOuwxov-8">
          <mxGeometry relative="1" as="geometry" />
        </mxCell>
        <mxCell id="o57jXzXNjO05xtOuwxov-6" value="如果Bean实现了BeanClassLoaderAware接口，则调用setBeanClassLoader方法" style="rounded=1;whiteSpace=wrap;html=1;fontSize=16;" vertex="1" parent="1">
          <mxGeometry x="160" y="580" width="300" height="60" as="geometry" />
        </mxCell>
        <mxCell id="o57jXzXNjO05xtOuwxov-12" style="edgeStyle=orthogonalEdgeStyle;rounded=0;orthogonalLoop=1;jettySize=auto;html=1;exitX=0.5;exitY=1;exitDx=0;exitDy=0;entryX=0.5;entryY=0;entryDx=0;entryDy=0;fontSize=16;" edge="1" parent="1" source="o57jXzXNjO05xtOuwxov-8" target="o57jXzXNjO05xtOuwxov-10">
          <mxGeometry relative="1" as="geometry" />
        </mxCell>
        <mxCell id="o57jXzXNjO05xtOuwxov-8" value="如果Bean实现了BeanFactoryAware接口，则调用setBeanFactory方法" style="rounded=1;whiteSpace=wrap;html=1;fontSize=16;" vertex="1" parent="1">
          <mxGeometry x="160" y="690" width="300" height="60" as="geometry" />
        </mxCell>
        <mxCell id="o57jXzXNjO05xtOuwxov-14" style="edgeStyle=orthogonalEdgeStyle;rounded=0;orthogonalLoop=1;jettySize=auto;html=1;exitX=0.5;exitY=1;exitDx=0;exitDy=0;entryX=0.5;entryY=0;entryDx=0;entryDy=0;fontSize=16;" edge="1" parent="1" source="o57jXzXNjO05xtOuwxov-10" target="o57jXzXNjO05xtOuwxov-11">
          <mxGeometry relative="1" as="geometry" />
        </mxCell>
        <mxCell id="o57jXzXNjO05xtOuwxov-10" value="调用BeanPostProcessor的postProcessBeforeInitialization方法&lt;br&gt;（前置处理）" style="rounded=1;whiteSpace=wrap;html=1;fontSize=16;" vertex="1" parent="1">
          <mxGeometry x="160" y="800" width="300" height="60" as="geometry" />
        </mxCell>
        <mxCell id="o57jXzXNjO05xtOuwxov-15" style="edgeStyle=orthogonalEdgeStyle;rounded=0;orthogonalLoop=1;jettySize=auto;html=1;exitX=0.5;exitY=1;exitDx=0;exitDy=0;entryX=0.5;entryY=0;entryDx=0;entryDy=0;fontSize=16;" edge="1" parent="1" source="o57jXzXNjO05xtOuwxov-11" target="o57jXzXNjO05xtOuwxov-13">
          <mxGeometry relative="1" as="geometry" />
        </mxCell>
        <mxCell id="o57jXzXNjO05xtOuwxov-11" value="如果Bean实现了InitializingBean接口，调用afterPropertiesSet方法" style="rounded=1;whiteSpace=wrap;html=1;fontSize=16;" vertex="1" parent="1">
          <mxGeometry x="160" y="910" width="300" height="60" as="geometry" />
        </mxCell>
        <mxCell id="o57jXzXNjO05xtOuwxov-18" style="edgeStyle=orthogonalEdgeStyle;rounded=0;orthogonalLoop=1;jettySize=auto;html=1;exitX=0.5;exitY=1;exitDx=0;exitDy=0;entryX=0.5;entryY=0;entryDx=0;entryDy=0;fontSize=16;" edge="1" parent="1" source="o57jXzXNjO05xtOuwxov-13" target="o57jXzXNjO05xtOuwxov-17">
          <mxGeometry relative="1" as="geometry" />
        </mxCell>
        <mxCell id="o57jXzXNjO05xtOuwxov-13" value="如果Bean定义了init-method方法，调用Bean的init-method方法" style="rounded=1;whiteSpace=wrap;html=1;fontSize=16;" vertex="1" parent="1">
          <mxGeometry x="160" y="1020" width="300" height="60" as="geometry" />
        </mxCell>
        <mxCell id="o57jXzXNjO05xtOuwxov-22" style="edgeStyle=orthogonalEdgeStyle;rounded=0;orthogonalLoop=1;jettySize=auto;html=1;exitX=0.5;exitY=1;exitDx=0;exitDy=0;entryX=0.5;entryY=0;entryDx=0;entryDy=0;fontSize=16;" edge="1" parent="1" source="o57jXzXNjO05xtOuwxov-17" target="o57jXzXNjO05xtOuwxov-19">
          <mxGeometry relative="1" as="geometry" />
        </mxCell>
        <mxCell id="o57jXzXNjO05xtOuwxov-17" value="调用BeanPostProcessor的postProcessAfterInitialization方法&lt;br&gt;（前置后置处理，bean已经准备就绪）" style="rounded=1;whiteSpace=wrap;html=1;fontSize=16;" vertex="1" parent="1">
          <mxGeometry x="160" y="1130" width="300" height="60" as="geometry" />
        </mxCell>
        <mxCell id="o57jXzXNjO05xtOuwxov-23" style="edgeStyle=orthogonalEdgeStyle;rounded=0;orthogonalLoop=1;jettySize=auto;html=1;exitX=0.5;exitY=1;exitDx=0;exitDy=0;entryX=0.5;entryY=0;entryDx=0;entryDy=0;fontSize=16;" edge="1" parent="1" source="o57jXzXNjO05xtOuwxov-19" target="o57jXzXNjO05xtOuwxov-21">
          <mxGeometry relative="1" as="geometry" />
        </mxCell>
        <mxCell id="o57jXzXNjO05xtOuwxov-19" value="应用上下文被销毁" style="rounded=1;whiteSpace=wrap;html=1;fontSize=16;" vertex="1" parent="1">
          <mxGeometry x="160" y="1240" width="300" height="50" as="geometry" />
        </mxCell>
        <mxCell id="o57jXzXNjO05xtOuwxov-25" style="edgeStyle=orthogonalEdgeStyle;rounded=0;orthogonalLoop=1;jettySize=auto;html=1;exitX=0.5;exitY=1;exitDx=0;exitDy=0;entryX=0.5;entryY=0;entryDx=0;entryDy=0;fontSize=16;" edge="1" parent="1" source="o57jXzXNjO05xtOuwxov-21" target="o57jXzXNjO05xtOuwxov-24">
          <mxGeometry relative="1" as="geometry" />
        </mxCell>
        <mxCell id="o57jXzXNjO05xtOuwxov-21" value="如果Bean实现了DisposableBean接口，调用destroy方法" style="rounded=1;whiteSpace=wrap;html=1;fontSize=16;" vertex="1" parent="1">
          <mxGeometry x="160" y="1340" width="300" height="60" as="geometry" />
        </mxCell>
        <mxCell id="o57jXzXNjO05xtOuwxov-30" style="edgeStyle=orthogonalEdgeStyle;rounded=0;orthogonalLoop=1;jettySize=auto;html=1;exitX=0.5;exitY=1;exitDx=0;exitDy=0;entryX=0.5;entryY=0;entryDx=0;entryDy=0;fontSize=16;" edge="1" parent="1" source="o57jXzXNjO05xtOuwxov-24" target="o57jXzXNjO05xtOuwxov-28">
          <mxGeometry relative="1" as="geometry" />
        </mxCell>
        <mxCell id="o57jXzXNjO05xtOuwxov-24" value="如果Bean定义了destroy-method方法，调用Bean的destroy-method方法" style="rounded=1;whiteSpace=wrap;html=1;fontSize=16;" vertex="1" parent="1">
          <mxGeometry x="160" y="1450" width="300" height="60" as="geometry" />
        </mxCell>
        <mxCell id="o57jXzXNjO05xtOuwxov-29" style="edgeStyle=orthogonalEdgeStyle;rounded=0;orthogonalLoop=1;jettySize=auto;html=1;exitX=0.5;exitY=1;exitDx=0;exitDy=0;entryX=0.5;entryY=0;entryDx=0;entryDy=0;fontSize=16;" edge="1" parent="1" source="o57jXzXNjO05xtOuwxov-26" target="o57jXzXNjO05xtOuwxov-1">
          <mxGeometry relative="1" as="geometry" />
        </mxCell>
        <mxCell id="o57jXzXNjO05xtOuwxov-26" value="开始" style="ellipse;whiteSpace=wrap;html=1;aspect=fixed;fontSize=16;fillColor=#B3B3B3;" vertex="1" parent="1">
          <mxGeometry x="280" y="160" width="60" height="60" as="geometry" />
        </mxCell>
        <mxCell id="o57jXzXNjO05xtOuwxov-28" value="结束" style="ellipse;whiteSpace=wrap;html=1;aspect=fixed;fontSize=16;fillColor=#B3B3B3;" vertex="1" parent="1">
          <mxGeometry x="280" y="1560" width="60" height="60" as="geometry" />
        </mxCell>
        <mxCell id="o57jXzXNjO05xtOuwxov-32" value="初始化" style="text;html=1;strokeColor=none;fillColor=none;align=center;verticalAlign=middle;whiteSpace=wrap;rounded=0;fontSize=16;" vertex="1" parent="1">
          <mxGeometry x="50" y="470" width="60" height="30" as="geometry" />
        </mxCell>
        <mxCell id="o57jXzXNjO05xtOuwxov-34" value="销毁" style="text;html=1;strokeColor=none;fillColor=none;align=center;verticalAlign=middle;whiteSpace=wrap;rounded=0;fontSize=16;" vertex="1" parent="1">
          <mxGeometry x="50" y="1240" width="60" height="30" as="geometry" />
        </mxCell>
        <mxCell id="o57jXzXNjO05xtOuwxov-35" value="&lt;font style=&quot;&quot;&gt;&lt;font style=&quot;font-size: 30px;&quot;&gt;Bean生命周期&lt;/font&gt;&lt;br&gt;&lt;/font&gt;" style="text;html=1;strokeColor=none;fillColor=none;align=center;verticalAlign=middle;whiteSpace=wrap;rounded=0;dashed=1;fontSize=16;" vertex="1" parent="1">
          <mxGeometry x="205" y="70" width="210" height="30" as="geometry" />
        </mxCell>
      </root>
    </mxGraphModel>
  </diagram>
</mxfile>
